<?xml version="1.0" standalone="no"?>
<!DOCTYPE svg PUBLIC "-//W3C//DTD SVG 20010904//EN"
 "http://www.w3.org/TR/2001/REC-SVG-20010904/DTD/svg10.dtd">
<svg version="1.0" xmlns="http://www.w3.org/2000/svg"
 width="260.000000pt" height="260.000000pt" viewBox="0 0 260.000000 260.000000"
 preserveAspectRatio="xMidYMid meet">
<metadata>
Created by potrace 1.14, written by Peter Selinger 2001-2017
</metadata>
<g transform="translate(0.000000,260.000000) scale(0.100000,-0.100000)"
fill="#000000" stroke="none">
<path d="M0 1300 l0 -1300 1300 0 1300 0 0 1300 0 1300 -1300 0 -1300 0 0
-1300z m1068 731 c11 -6 13 -54 12 -219 -1 -208 0 -211 22 -226 33 -23 363
-23 396 0 22 15 23 19 21 207 l-1 191 31 28 31 28 163 0 c89 0 168 -4 175 -9
20 -12 19 -1520 0 -1551 -15 -24 -31 -25 -63 -4 -25 16 -25 18 -25 160 0 120
-3 146 -15 150 -33 13 -45 -15 -45 -106 0 -49 -3 -95 -6 -104 -8 -20 -67 -22
-82 -3 -6 7 -12 46 -14 87 -2 40 -7 75 -13 77 -19 6 -35 -13 -39 -47 -7 -53
-16 -70 -42 -76 -51 -13 -54 -1 -54 250 0 193 -3 235 -16 254 -15 21 -20 22
-204 22 -240 0 -221 20 -219 -230 l1 -182 -26 -26 c-25 -25 -29 -26 -188 -29
-125 -3 -167 -1 -181 9 -17 13 -18 46 -18 645 0 378 4 641 10 656 20 51 42 57
216 57 88 0 166 -4 173 -9z"/>
</g>
</svg>
